<?xml version="1.0" standalone="no"?>
<!DOCTYPE svg PUBLIC "-//W3C//DTD SVG 20010904//EN"
 "http://www.w3.org/TR/2001/REC-SVG-20010904/DTD/svg10.dtd">
<svg version="1.0" xmlns="http://www.w3.org/2000/svg"
 width="16.000000pt" height="16.000000pt" viewBox="0 0 16.000000 16.000000"
 preserveAspectRatio="xMidYMid meet">
<metadata>
Created by potrace 1.11, written by Peter Selinger 2001-2013
</metadata>
<g transform="translate(0.000000,16.000000) scale(0.002286,-0.002286)"
fill="#000000" stroke="none">
<path d="M585 6408 c-3 -7 -4 -1320 -3 -2918 l3 -2905 2915 0 2915 0 0 2915 0
2915 -2913 3 c-2325 2 -2914 0 -2917 -10z m4085 -868 l0 -290 -1750 0 -1750 0
0 290 0 290 1750 0 1750 0 0 -290z m1160 0 l0 -290 -290 0 -290 0 0 290 0 290
290 0 290 0 0 -290z m0 -2620 l0 -1750 -2330 0 -2330 0 0 1750 0 1750 2330 0
2330 0 0 -1750z"/>
<path d="M1750 3790 l0 -290 1750 0 1750 0 0 290 0 290 -1750 0 -1750 0 0
-290z"/>
<path d="M1750 2625 l0 -295 1750 0 1750 0 0 295 0 295 -1750 0 -1750 0 0
-295z"/>
</g>
</svg>
